<svg xmlns="http://www.w3.org/2000/svg" viewBox="0 0 30 29"><g fill="none" fill-rule="evenodd"><path d="M0 0h30v29H0z"/><path d="M10.836 14.139v-.002a9.726 9.726 0 0 0 4.575 4.404h0c.297.135.645.11.917-.068l2.933-1.892v-.001a.958.958 0 0 1 .888-.08l5.488 2.274h0c.382.156.612.54.561.94h0c-.36 2.713-2.75 4.748-5.581 4.748h-.001c-8.803-.001-15.938-6.898-15.938-15.406h-.001c0-2.738 2.103-5.048 4.912-5.396h0a.938.938 0 0 1 .97.543l2.355 5.31h0c.123.278.094.598-.077.852l-1.95 2.879h-.001a.868.868 0 0 0-.064.883l.014.012Z" stroke="#000" stroke-width="2.682" stroke-linecap="round" stroke-linejoin="round"/></g></svg>
