<svg xmlns="http://www.w3.org/2000/svg" viewBox="0 0 24 24"><g fill="none" fill-rule="evenodd"><path d="M0 0h24v24H0z"/><path d="M11.5 2.425 3.936 3.938l-1.513 7.56h0c-.05.245.028.5.205.676l9.792 9.793-.001-.001a.75.75 0 0 0 1.06 0v-.001l8.485-8.486h0a.751.751 0 0 0 0-1.062h-.001L12.17 2.622h-.001a.748.748 0 0 0-.678-.206l.007.008Z" stroke="#80868B" stroke-width="2.228" stroke-linecap="round" stroke-linejoin="round"/><path d="M7.874 6.375a1.5 1.5 0 1 0 0 3 1.5 1.5 0 0 0 0-3Z" fill="#80868B" fill-rule="nonzero"/></g></svg>
